<mxfile host="app.diagrams.net" agent="Mozilla/5.0 (Macintosh; Intel Mac OS X 10_15_7) AppleWebKit/537.36 (KHTML, like Gecko) Chrome/139.0.0.0 Safari/537.36" version="28.0.9">
  <diagram name="Page-1" id="fihYJoXctaT5-3KxguG3">
    <mxGraphModel dx="1454" dy="936" grid="1" gridSize="10" guides="1" tooltips="1" connect="1" arrows="1" fold="1" page="1" pageScale="1" pageWidth="850" pageHeight="1100" math="0" shadow="0">
      <root>
        <mxCell id="0" />
        <mxCell id="1" parent="0" />
        <mxCell id="tg3P0OwAwfH6cwJ7fF7Y-1" style="edgeStyle=orthogonalEdgeStyle;rounded=0;orthogonalLoop=1;jettySize=auto;html=1;exitX=1;exitY=0.5;exitDx=0;exitDy=0;entryX=0;entryY=0.5;entryDx=0;entryDy=0;" parent="1" source="tg3P0OwAwfH6cwJ7fF7Y-2" target="tg3P0OwAwfH6cwJ7fF7Y-8" edge="1">
          <mxGeometry relative="1" as="geometry" />
        </mxCell>
        <mxCell id="tg3P0OwAwfH6cwJ7fF7Y-2" value="Blurred Image" style="whiteSpace=wrap;html=1;aspect=fixed;" parent="1" vertex="1">
          <mxGeometry x="310" y="509.5" width="95" height="95" as="geometry" />
        </mxCell>
        <mxCell id="tg3P0OwAwfH6cwJ7fF7Y-3" value="" style="shape=table;startSize=0;container=1;collapsible=0;childLayout=tableLayout;fontSize=16;" parent="1" vertex="1">
          <mxGeometry x="449" y="509.5" width="94" height="95" as="geometry" />
        </mxCell>
        <mxCell id="tg3P0OwAwfH6cwJ7fF7Y-4" value="" style="shape=tableRow;horizontal=0;startSize=0;swimlaneHead=0;swimlaneBody=0;strokeColor=inherit;top=0;left=0;bottom=0;right=0;collapsible=0;dropTarget=0;fillColor=none;points=[[0,0.5],[1,0.5]];portConstraint=eastwest;fontSize=16;" parent="tg3P0OwAwfH6cwJ7fF7Y-3" vertex="1">
          <mxGeometry width="94" height="32" as="geometry" />
        </mxCell>
        <mxCell id="tg3P0OwAwfH6cwJ7fF7Y-5" value="" style="shape=partialRectangle;html=1;whiteSpace=wrap;connectable=0;strokeColor=inherit;overflow=hidden;fillColor=none;top=0;left=0;bottom=0;right=0;pointerEvents=1;fontSize=16;" parent="tg3P0OwAwfH6cwJ7fF7Y-4" vertex="1">
          <mxGeometry width="32" height="32" as="geometry">
            <mxRectangle width="32" height="32" as="alternateBounds" />
          </mxGeometry>
        </mxCell>
        <mxCell id="tg3P0OwAwfH6cwJ7fF7Y-6" value="" style="shape=partialRectangle;html=1;whiteSpace=wrap;connectable=0;strokeColor=inherit;overflow=hidden;fillColor=none;top=0;left=0;bottom=0;right=0;pointerEvents=1;fontSize=16;" parent="tg3P0OwAwfH6cwJ7fF7Y-4" vertex="1">
          <mxGeometry x="32" width="30" height="32" as="geometry">
            <mxRectangle width="30" height="32" as="alternateBounds" />
          </mxGeometry>
        </mxCell>
        <mxCell id="tg3P0OwAwfH6cwJ7fF7Y-7" value="" style="shape=partialRectangle;html=1;whiteSpace=wrap;connectable=0;strokeColor=inherit;overflow=hidden;fillColor=none;top=0;left=0;bottom=0;right=0;pointerEvents=1;fontSize=16;" parent="tg3P0OwAwfH6cwJ7fF7Y-4" vertex="1">
          <mxGeometry x="62" width="32" height="32" as="geometry">
            <mxRectangle width="32" height="32" as="alternateBounds" />
          </mxGeometry>
        </mxCell>
        <mxCell id="tg3P0OwAwfH6cwJ7fF7Y-8" value="" style="shape=tableRow;horizontal=0;startSize=0;swimlaneHead=0;swimlaneBody=0;strokeColor=inherit;top=0;left=0;bottom=0;right=0;collapsible=0;dropTarget=0;fillColor=none;points=[[0,0.5],[1,0.5]];portConstraint=eastwest;fontSize=16;" parent="tg3P0OwAwfH6cwJ7fF7Y-3" vertex="1">
          <mxGeometry y="32" width="94" height="31" as="geometry" />
        </mxCell>
        <mxCell id="tg3P0OwAwfH6cwJ7fF7Y-9" value="" style="shape=partialRectangle;html=1;whiteSpace=wrap;connectable=0;strokeColor=inherit;overflow=hidden;fillColor=none;top=0;left=0;bottom=0;right=0;pointerEvents=1;fontSize=16;" parent="tg3P0OwAwfH6cwJ7fF7Y-8" vertex="1">
          <mxGeometry width="32" height="31" as="geometry">
            <mxRectangle width="32" height="31" as="alternateBounds" />
          </mxGeometry>
        </mxCell>
        <mxCell id="tg3P0OwAwfH6cwJ7fF7Y-10" value="" style="shape=partialRectangle;html=1;whiteSpace=wrap;connectable=0;strokeColor=inherit;overflow=hidden;fillColor=none;top=0;left=0;bottom=0;right=0;pointerEvents=1;fontSize=16;" parent="tg3P0OwAwfH6cwJ7fF7Y-8" vertex="1">
          <mxGeometry x="32" width="30" height="31" as="geometry">
            <mxRectangle width="30" height="31" as="alternateBounds" />
          </mxGeometry>
        </mxCell>
        <mxCell id="tg3P0OwAwfH6cwJ7fF7Y-11" value="" style="shape=partialRectangle;html=1;whiteSpace=wrap;connectable=0;strokeColor=inherit;overflow=hidden;fillColor=none;top=0;left=0;bottom=0;right=0;pointerEvents=1;fontSize=16;" parent="tg3P0OwAwfH6cwJ7fF7Y-8" vertex="1">
          <mxGeometry x="62" width="32" height="31" as="geometry">
            <mxRectangle width="32" height="31" as="alternateBounds" />
          </mxGeometry>
        </mxCell>
        <mxCell id="tg3P0OwAwfH6cwJ7fF7Y-12" value="" style="shape=tableRow;horizontal=0;startSize=0;swimlaneHead=0;swimlaneBody=0;strokeColor=inherit;top=0;left=0;bottom=0;right=0;collapsible=0;dropTarget=0;fillColor=none;points=[[0,0.5],[1,0.5]];portConstraint=eastwest;fontSize=16;" parent="tg3P0OwAwfH6cwJ7fF7Y-3" vertex="1">
          <mxGeometry y="63" width="94" height="32" as="geometry" />
        </mxCell>
        <mxCell id="tg3P0OwAwfH6cwJ7fF7Y-13" value="" style="shape=partialRectangle;html=1;whiteSpace=wrap;connectable=0;strokeColor=inherit;overflow=hidden;fillColor=none;top=0;left=0;bottom=0;right=0;pointerEvents=1;fontSize=16;" parent="tg3P0OwAwfH6cwJ7fF7Y-12" vertex="1">
          <mxGeometry width="32" height="32" as="geometry">
            <mxRectangle width="32" height="32" as="alternateBounds" />
          </mxGeometry>
        </mxCell>
        <mxCell id="tg3P0OwAwfH6cwJ7fF7Y-14" value="" style="shape=partialRectangle;html=1;whiteSpace=wrap;connectable=0;strokeColor=inherit;overflow=hidden;fillColor=none;top=0;left=0;bottom=0;right=0;pointerEvents=1;fontSize=16;" parent="tg3P0OwAwfH6cwJ7fF7Y-12" vertex="1">
          <mxGeometry x="32" width="30" height="32" as="geometry">
            <mxRectangle width="30" height="32" as="alternateBounds" />
          </mxGeometry>
        </mxCell>
        <mxCell id="tg3P0OwAwfH6cwJ7fF7Y-15" value="" style="shape=partialRectangle;html=1;whiteSpace=wrap;connectable=0;strokeColor=inherit;overflow=hidden;fillColor=none;top=0;left=0;bottom=0;right=0;pointerEvents=1;fontSize=16;" parent="tg3P0OwAwfH6cwJ7fF7Y-12" vertex="1">
          <mxGeometry x="62" width="32" height="32" as="geometry">
            <mxRectangle width="32" height="32" as="alternateBounds" />
          </mxGeometry>
        </mxCell>
        <mxCell id="tg3P0OwAwfH6cwJ7fF7Y-17" value="" style="whiteSpace=wrap;html=1;aspect=fixed;" parent="1" vertex="1">
          <mxGeometry x="719" y="410" width="33" height="33" as="geometry" />
        </mxCell>
        <mxCell id="tg3P0OwAwfH6cwJ7fF7Y-20" style="edgeStyle=orthogonalEdgeStyle;rounded=0;orthogonalLoop=1;jettySize=auto;html=1;exitX=0;exitY=0;exitDx=120;exitDy=50;exitPerimeter=0;entryX=0.5;entryY=0;entryDx=0;entryDy=0;" parent="1" source="tg3P0OwAwfH6cwJ7fF7Y-21" target="tg3P0OwAwfH6cwJ7fF7Y-43" edge="1">
          <mxGeometry relative="1" as="geometry" />
        </mxCell>
        <mxCell id="tg3P0OwAwfH6cwJ7fF7Y-21" value="Convolutional Block" style="shape=cube;whiteSpace=wrap;html=1;boundedLbl=1;backgroundOutline=1;darkOpacity=0.05;darkOpacity2=0.1;fillColor=#dae8fc;strokeColor=#6c8ebf;" parent="1" vertex="1">
          <mxGeometry x="820" y="380" width="120" height="80" as="geometry" />
        </mxCell>
        <mxCell id="tg3P0OwAwfH6cwJ7fF7Y-22" value="" style="shape=table;startSize=0;container=1;collapsible=0;childLayout=tableLayout;fontSize=16;" parent="1" vertex="1">
          <mxGeometry x="719" y="577.5" width="94" height="95" as="geometry" />
        </mxCell>
        <mxCell id="tg3P0OwAwfH6cwJ7fF7Y-23" value="" style="shape=tableRow;horizontal=0;startSize=0;swimlaneHead=0;swimlaneBody=0;strokeColor=inherit;top=0;left=0;bottom=0;right=0;collapsible=0;dropTarget=0;fillColor=none;points=[[0,0.5],[1,0.5]];portConstraint=eastwest;fontSize=16;" parent="tg3P0OwAwfH6cwJ7fF7Y-22" vertex="1">
          <mxGeometry width="94" height="32" as="geometry" />
        </mxCell>
        <mxCell id="tg3P0OwAwfH6cwJ7fF7Y-24" value="" style="shape=partialRectangle;html=1;whiteSpace=wrap;connectable=0;strokeColor=inherit;overflow=hidden;fillColor=none;top=0;left=0;bottom=0;right=0;pointerEvents=1;fontSize=16;" parent="tg3P0OwAwfH6cwJ7fF7Y-23" vertex="1">
          <mxGeometry width="32" height="32" as="geometry">
            <mxRectangle width="32" height="32" as="alternateBounds" />
          </mxGeometry>
        </mxCell>
        <mxCell id="tg3P0OwAwfH6cwJ7fF7Y-25" value="" style="shape=partialRectangle;html=1;whiteSpace=wrap;connectable=0;strokeColor=inherit;overflow=hidden;fillColor=none;top=0;left=0;bottom=0;right=0;pointerEvents=1;fontSize=16;" parent="tg3P0OwAwfH6cwJ7fF7Y-23" vertex="1">
          <mxGeometry x="32" width="30" height="32" as="geometry">
            <mxRectangle width="30" height="32" as="alternateBounds" />
          </mxGeometry>
        </mxCell>
        <mxCell id="tg3P0OwAwfH6cwJ7fF7Y-26" value="" style="shape=partialRectangle;html=1;whiteSpace=wrap;connectable=0;strokeColor=inherit;overflow=hidden;fillColor=none;top=0;left=0;bottom=0;right=0;pointerEvents=1;fontSize=16;" parent="tg3P0OwAwfH6cwJ7fF7Y-23" vertex="1">
          <mxGeometry x="62" width="32" height="32" as="geometry">
            <mxRectangle width="32" height="32" as="alternateBounds" />
          </mxGeometry>
        </mxCell>
        <mxCell id="tg3P0OwAwfH6cwJ7fF7Y-27" value="" style="shape=tableRow;horizontal=0;startSize=0;swimlaneHead=0;swimlaneBody=0;strokeColor=inherit;top=0;left=0;bottom=0;right=0;collapsible=0;dropTarget=0;fillColor=none;points=[[0,0.5],[1,0.5]];portConstraint=eastwest;fontSize=16;" parent="tg3P0OwAwfH6cwJ7fF7Y-22" vertex="1">
          <mxGeometry y="32" width="94" height="31" as="geometry" />
        </mxCell>
        <mxCell id="tg3P0OwAwfH6cwJ7fF7Y-28" value="" style="shape=partialRectangle;html=1;whiteSpace=wrap;connectable=0;strokeColor=inherit;overflow=hidden;fillColor=none;top=0;left=0;bottom=0;right=0;pointerEvents=1;fontSize=16;" parent="tg3P0OwAwfH6cwJ7fF7Y-27" vertex="1">
          <mxGeometry width="32" height="31" as="geometry">
            <mxRectangle width="32" height="31" as="alternateBounds" />
          </mxGeometry>
        </mxCell>
        <mxCell id="tg3P0OwAwfH6cwJ7fF7Y-29" value="" style="shape=partialRectangle;html=1;whiteSpace=wrap;connectable=0;strokeColor=inherit;overflow=hidden;fillColor=none;top=0;left=0;bottom=0;right=0;pointerEvents=1;fontSize=16;" parent="tg3P0OwAwfH6cwJ7fF7Y-27" vertex="1">
          <mxGeometry x="32" width="30" height="31" as="geometry">
            <mxRectangle width="30" height="31" as="alternateBounds" />
          </mxGeometry>
        </mxCell>
        <mxCell id="tg3P0OwAwfH6cwJ7fF7Y-30" value="" style="shape=partialRectangle;html=1;whiteSpace=wrap;connectable=0;strokeColor=inherit;overflow=hidden;fillColor=none;top=0;left=0;bottom=0;right=0;pointerEvents=1;fontSize=16;" parent="tg3P0OwAwfH6cwJ7fF7Y-27" vertex="1">
          <mxGeometry x="62" width="32" height="31" as="geometry">
            <mxRectangle width="32" height="31" as="alternateBounds" />
          </mxGeometry>
        </mxCell>
        <mxCell id="tg3P0OwAwfH6cwJ7fF7Y-31" value="" style="shape=tableRow;horizontal=0;startSize=0;swimlaneHead=0;swimlaneBody=0;strokeColor=inherit;top=0;left=0;bottom=0;right=0;collapsible=0;dropTarget=0;fillColor=none;points=[[0,0.5],[1,0.5]];portConstraint=eastwest;fontSize=16;" parent="tg3P0OwAwfH6cwJ7fF7Y-22" vertex="1">
          <mxGeometry y="63" width="94" height="32" as="geometry" />
        </mxCell>
        <mxCell id="tg3P0OwAwfH6cwJ7fF7Y-32" value="" style="shape=partialRectangle;html=1;whiteSpace=wrap;connectable=0;strokeColor=inherit;overflow=hidden;fillColor=none;top=0;left=0;bottom=0;right=0;pointerEvents=1;fontSize=16;" parent="tg3P0OwAwfH6cwJ7fF7Y-31" vertex="1">
          <mxGeometry width="32" height="32" as="geometry">
            <mxRectangle width="32" height="32" as="alternateBounds" />
          </mxGeometry>
        </mxCell>
        <mxCell id="tg3P0OwAwfH6cwJ7fF7Y-33" value="" style="shape=partialRectangle;html=1;whiteSpace=wrap;connectable=0;strokeColor=inherit;overflow=hidden;fillColor=none;top=0;left=0;bottom=0;right=0;pointerEvents=1;fontSize=16;" parent="tg3P0OwAwfH6cwJ7fF7Y-31" vertex="1">
          <mxGeometry x="32" width="30" height="32" as="geometry">
            <mxRectangle width="30" height="32" as="alternateBounds" />
          </mxGeometry>
        </mxCell>
        <mxCell id="tg3P0OwAwfH6cwJ7fF7Y-34" value="" style="shape=partialRectangle;html=1;whiteSpace=wrap;connectable=0;strokeColor=inherit;overflow=hidden;fillColor=none;top=0;left=0;bottom=0;right=0;pointerEvents=1;fontSize=16;" parent="tg3P0OwAwfH6cwJ7fF7Y-31" vertex="1">
          <mxGeometry x="62" width="32" height="32" as="geometry">
            <mxRectangle width="32" height="32" as="alternateBounds" />
          </mxGeometry>
        </mxCell>
        <mxCell id="tg3P0OwAwfH6cwJ7fF7Y-35" style="edgeStyle=orthogonalEdgeStyle;rounded=0;orthogonalLoop=1;jettySize=auto;html=1;exitX=0;exitY=0;exitDx=120;exitDy=50;exitPerimeter=0;entryX=0.5;entryY=1;entryDx=0;entryDy=0;" parent="1" source="tg3P0OwAwfH6cwJ7fF7Y-36" target="tg3P0OwAwfH6cwJ7fF7Y-43" edge="1">
          <mxGeometry relative="1" as="geometry" />
        </mxCell>
        <mxCell id="tg3P0OwAwfH6cwJ7fF7Y-36" value="ViT" style="shape=cube;whiteSpace=wrap;html=1;boundedLbl=1;backgroundOutline=1;darkOpacity=0.05;darkOpacity2=0.1;fillColor=#ffe6cc;strokeColor=#d79b00;" parent="1" vertex="1">
          <mxGeometry x="863" y="594.5" width="120" height="80" as="geometry" />
        </mxCell>
        <mxCell id="tg3P0OwAwfH6cwJ7fF7Y-63" style="edgeStyle=orthogonalEdgeStyle;rounded=0;orthogonalLoop=1;jettySize=auto;html=1;exitX=0;exitY=0;exitDx=120;exitDy=50;exitPerimeter=0;entryX=0;entryY=0.5;entryDx=0;entryDy=0;" parent="1" source="tg3P0OwAwfH6cwJ7fF7Y-38" target="tg3P0OwAwfH6cwJ7fF7Y-55" edge="1">
          <mxGeometry relative="1" as="geometry" />
        </mxCell>
        <mxCell id="tg3P0OwAwfH6cwJ7fF7Y-38" value="Reconstruction head" style="shape=cube;whiteSpace=wrap;html=1;boundedLbl=1;backgroundOutline=1;darkOpacity=0.05;darkOpacity2=0.1;fillColor=#d5e8d4;strokeColor=#82b366;" parent="1" vertex="1">
          <mxGeometry x="1098" y="507.5" width="120" height="80" as="geometry" />
        </mxCell>
        <mxCell id="tg3P0OwAwfH6cwJ7fF7Y-39" value="Sharp Image" style="whiteSpace=wrap;html=1;aspect=fixed;" parent="1" vertex="1">
          <mxGeometry x="1490" y="511" width="93" height="93" as="geometry" />
        </mxCell>
        <mxCell id="tg3P0OwAwfH6cwJ7fF7Y-40" style="edgeStyle=orthogonalEdgeStyle;rounded=0;orthogonalLoop=1;jettySize=auto;html=1;exitX=1;exitY=0.5;exitDx=0;exitDy=0;entryX=0;entryY=0.5;entryDx=0;entryDy=0;" parent="1" source="tg3P0OwAwfH6cwJ7fF7Y-8" target="tg3P0OwAwfH6cwJ7fF7Y-17" edge="1">
          <mxGeometry relative="1" as="geometry">
            <Array as="points">
              <mxPoint x="590" y="557" />
              <mxPoint x="590" y="427" />
            </Array>
          </mxGeometry>
        </mxCell>
        <mxCell id="tg3P0OwAwfH6cwJ7fF7Y-41" style="edgeStyle=orthogonalEdgeStyle;rounded=0;orthogonalLoop=1;jettySize=auto;html=1;exitX=1;exitY=0.5;exitDx=0;exitDy=0;entryX=0;entryY=0.5;entryDx=0;entryDy=0;" parent="1" source="tg3P0OwAwfH6cwJ7fF7Y-8" target="tg3P0OwAwfH6cwJ7fF7Y-27" edge="1">
          <mxGeometry relative="1" as="geometry">
            <Array as="points">
              <mxPoint x="590" y="557" />
              <mxPoint x="590" y="625" />
            </Array>
          </mxGeometry>
        </mxCell>
        <mxCell id="tg3P0OwAwfH6cwJ7fF7Y-42" style="edgeStyle=orthogonalEdgeStyle;rounded=0;orthogonalLoop=1;jettySize=auto;html=1;exitX=1;exitY=0.5;exitDx=0;exitDy=0;entryX=0;entryY=0;entryDx=0;entryDy=30;entryPerimeter=0;" parent="1" source="tg3P0OwAwfH6cwJ7fF7Y-27" target="tg3P0OwAwfH6cwJ7fF7Y-36" edge="1">
          <mxGeometry relative="1" as="geometry" />
        </mxCell>
        <mxCell id="tg3P0OwAwfH6cwJ7fF7Y-43" value="" style="ellipse;whiteSpace=wrap;html=1;aspect=fixed;" parent="1" vertex="1">
          <mxGeometry x="1023" y="520.5" width="34" height="34" as="geometry" />
        </mxCell>
        <mxCell id="tg3P0OwAwfH6cwJ7fF7Y-44" value="" style="ellipse;whiteSpace=wrap;html=1;aspect=fixed;fillColor=light-dark(#050505, #ededed);" parent="1" vertex="1">
          <mxGeometry x="1035.5" y="533" width="9" height="9" as="geometry" />
        </mxCell>
        <mxCell id="tg3P0OwAwfH6cwJ7fF7Y-45" style="edgeStyle=orthogonalEdgeStyle;rounded=0;orthogonalLoop=1;jettySize=auto;html=1;exitX=1;exitY=0.5;exitDx=0;exitDy=0;entryX=0;entryY=0;entryDx=0;entryDy=30;entryPerimeter=0;" parent="1" source="tg3P0OwAwfH6cwJ7fF7Y-43" target="tg3P0OwAwfH6cwJ7fF7Y-38" edge="1">
          <mxGeometry relative="1" as="geometry" />
        </mxCell>
        <mxCell id="tg3P0OwAwfH6cwJ7fF7Y-46" value="Denoised Features per patch" style="text;html=1;align=center;verticalAlign=middle;resizable=0;points=[];autosize=1;strokeColor=none;fillColor=none;" parent="1" vertex="1">
          <mxGeometry x="990" y="399" width="173" height="26" as="geometry" />
        </mxCell>
        <mxCell id="tg3P0OwAwfH6cwJ7fF7Y-47" value="Attention" style="text;html=1;align=center;verticalAlign=middle;resizable=0;points=[];autosize=1;strokeColor=none;fillColor=none;" parent="1" vertex="1">
          <mxGeometry x="1010" y="648.5" width="65" height="26" as="geometry" />
        </mxCell>
        <mxCell id="tg3P0OwAwfH6cwJ7fF7Y-48" value="Weigh the transformer attention with&amp;nbsp;&lt;div&gt;denoised features by Hadamard product&lt;/div&gt;" style="text;html=1;align=center;verticalAlign=middle;resizable=0;points=[];autosize=1;strokeColor=none;fillColor=none;" parent="1" vertex="1">
          <mxGeometry x="1057" y="460" width="232" height="41" as="geometry" />
        </mxCell>
        <mxCell id="tg3P0OwAwfH6cwJ7fF7Y-49" style="edgeStyle=orthogonalEdgeStyle;rounded=0;orthogonalLoop=1;jettySize=auto;html=1;exitX=1;exitY=0.5;exitDx=0;exitDy=0;entryX=0.008;entryY=0.588;entryDx=0;entryDy=0;entryPerimeter=0;" parent="1" source="tg3P0OwAwfH6cwJ7fF7Y-17" target="tg3P0OwAwfH6cwJ7fF7Y-21" edge="1">
          <mxGeometry relative="1" as="geometry" />
        </mxCell>
        <mxCell id="tg3P0OwAwfH6cwJ7fF7Y-50" value="" style="shape=table;startSize=0;container=1;collapsible=0;childLayout=tableLayout;fontSize=16;" parent="1" vertex="1">
          <mxGeometry x="1320" y="510" width="94" height="95" as="geometry" />
        </mxCell>
        <mxCell id="tg3P0OwAwfH6cwJ7fF7Y-51" value="" style="shape=tableRow;horizontal=0;startSize=0;swimlaneHead=0;swimlaneBody=0;strokeColor=inherit;top=0;left=0;bottom=0;right=0;collapsible=0;dropTarget=0;fillColor=none;points=[[0,0.5],[1,0.5]];portConstraint=eastwest;fontSize=16;" parent="tg3P0OwAwfH6cwJ7fF7Y-50" vertex="1">
          <mxGeometry width="94" height="32" as="geometry" />
        </mxCell>
        <mxCell id="tg3P0OwAwfH6cwJ7fF7Y-52" value="" style="shape=partialRectangle;html=1;whiteSpace=wrap;connectable=0;strokeColor=inherit;overflow=hidden;fillColor=none;top=0;left=0;bottom=0;right=0;pointerEvents=1;fontSize=16;" parent="tg3P0OwAwfH6cwJ7fF7Y-51" vertex="1">
          <mxGeometry width="32" height="32" as="geometry">
            <mxRectangle width="32" height="32" as="alternateBounds" />
          </mxGeometry>
        </mxCell>
        <mxCell id="tg3P0OwAwfH6cwJ7fF7Y-53" value="" style="shape=partialRectangle;html=1;whiteSpace=wrap;connectable=0;strokeColor=inherit;overflow=hidden;fillColor=none;top=0;left=0;bottom=0;right=0;pointerEvents=1;fontSize=16;" parent="tg3P0OwAwfH6cwJ7fF7Y-51" vertex="1">
          <mxGeometry x="32" width="30" height="32" as="geometry">
            <mxRectangle width="30" height="32" as="alternateBounds" />
          </mxGeometry>
        </mxCell>
        <mxCell id="tg3P0OwAwfH6cwJ7fF7Y-54" value="" style="shape=partialRectangle;html=1;whiteSpace=wrap;connectable=0;strokeColor=inherit;overflow=hidden;fillColor=none;top=0;left=0;bottom=0;right=0;pointerEvents=1;fontSize=16;" parent="tg3P0OwAwfH6cwJ7fF7Y-51" vertex="1">
          <mxGeometry x="62" width="32" height="32" as="geometry">
            <mxRectangle width="32" height="32" as="alternateBounds" />
          </mxGeometry>
        </mxCell>
        <mxCell id="tg3P0OwAwfH6cwJ7fF7Y-55" value="" style="shape=tableRow;horizontal=0;startSize=0;swimlaneHead=0;swimlaneBody=0;strokeColor=inherit;top=0;left=0;bottom=0;right=0;collapsible=0;dropTarget=0;fillColor=none;points=[[0,0.5],[1,0.5]];portConstraint=eastwest;fontSize=16;" parent="tg3P0OwAwfH6cwJ7fF7Y-50" vertex="1">
          <mxGeometry y="32" width="94" height="31" as="geometry" />
        </mxCell>
        <mxCell id="tg3P0OwAwfH6cwJ7fF7Y-56" value="" style="shape=partialRectangle;html=1;whiteSpace=wrap;connectable=0;strokeColor=inherit;overflow=hidden;fillColor=none;top=0;left=0;bottom=0;right=0;pointerEvents=1;fontSize=16;" parent="tg3P0OwAwfH6cwJ7fF7Y-55" vertex="1">
          <mxGeometry width="32" height="31" as="geometry">
            <mxRectangle width="32" height="31" as="alternateBounds" />
          </mxGeometry>
        </mxCell>
        <mxCell id="tg3P0OwAwfH6cwJ7fF7Y-57" value="" style="shape=partialRectangle;html=1;whiteSpace=wrap;connectable=0;strokeColor=inherit;overflow=hidden;fillColor=none;top=0;left=0;bottom=0;right=0;pointerEvents=1;fontSize=16;" parent="tg3P0OwAwfH6cwJ7fF7Y-55" vertex="1">
          <mxGeometry x="32" width="30" height="31" as="geometry">
            <mxRectangle width="30" height="31" as="alternateBounds" />
          </mxGeometry>
        </mxCell>
        <mxCell id="tg3P0OwAwfH6cwJ7fF7Y-58" value="" style="shape=partialRectangle;html=1;whiteSpace=wrap;connectable=0;strokeColor=inherit;overflow=hidden;fillColor=none;top=0;left=0;bottom=0;right=0;pointerEvents=1;fontSize=16;" parent="tg3P0OwAwfH6cwJ7fF7Y-55" vertex="1">
          <mxGeometry x="62" width="32" height="31" as="geometry">
            <mxRectangle width="32" height="31" as="alternateBounds" />
          </mxGeometry>
        </mxCell>
        <mxCell id="tg3P0OwAwfH6cwJ7fF7Y-59" value="" style="shape=tableRow;horizontal=0;startSize=0;swimlaneHead=0;swimlaneBody=0;strokeColor=inherit;top=0;left=0;bottom=0;right=0;collapsible=0;dropTarget=0;fillColor=none;points=[[0,0.5],[1,0.5]];portConstraint=eastwest;fontSize=16;" parent="tg3P0OwAwfH6cwJ7fF7Y-50" vertex="1">
          <mxGeometry y="63" width="94" height="32" as="geometry" />
        </mxCell>
        <mxCell id="tg3P0OwAwfH6cwJ7fF7Y-60" value="" style="shape=partialRectangle;html=1;whiteSpace=wrap;connectable=0;strokeColor=inherit;overflow=hidden;fillColor=none;top=0;left=0;bottom=0;right=0;pointerEvents=1;fontSize=16;" parent="tg3P0OwAwfH6cwJ7fF7Y-59" vertex="1">
          <mxGeometry width="32" height="32" as="geometry">
            <mxRectangle width="32" height="32" as="alternateBounds" />
          </mxGeometry>
        </mxCell>
        <mxCell id="tg3P0OwAwfH6cwJ7fF7Y-61" value="" style="shape=partialRectangle;html=1;whiteSpace=wrap;connectable=0;strokeColor=inherit;overflow=hidden;fillColor=none;top=0;left=0;bottom=0;right=0;pointerEvents=1;fontSize=16;" parent="tg3P0OwAwfH6cwJ7fF7Y-59" vertex="1">
          <mxGeometry x="32" width="30" height="32" as="geometry">
            <mxRectangle width="30" height="32" as="alternateBounds" />
          </mxGeometry>
        </mxCell>
        <mxCell id="tg3P0OwAwfH6cwJ7fF7Y-62" value="" style="shape=partialRectangle;html=1;whiteSpace=wrap;connectable=0;strokeColor=inherit;overflow=hidden;fillColor=none;top=0;left=0;bottom=0;right=0;pointerEvents=1;fontSize=16;" parent="tg3P0OwAwfH6cwJ7fF7Y-59" vertex="1">
          <mxGeometry x="62" width="32" height="32" as="geometry">
            <mxRectangle width="32" height="32" as="alternateBounds" />
          </mxGeometry>
        </mxCell>
        <mxCell id="tg3P0OwAwfH6cwJ7fF7Y-64" style="edgeStyle=orthogonalEdgeStyle;rounded=0;orthogonalLoop=1;jettySize=auto;html=1;exitX=1;exitY=0.5;exitDx=0;exitDy=0;entryX=0;entryY=0.5;entryDx=0;entryDy=0;" parent="1" source="tg3P0OwAwfH6cwJ7fF7Y-55" target="tg3P0OwAwfH6cwJ7fF7Y-39" edge="1">
          <mxGeometry relative="1" as="geometry" />
        </mxCell>
        <mxCell id="tg3P0OwAwfH6cwJ7fF7Y-65" value="Image Stitching" style="text;html=1;align=center;verticalAlign=middle;resizable=0;points=[];autosize=1;strokeColor=none;fillColor=none;" parent="1" vertex="1">
          <mxGeometry x="1312" y="465.5" width="110" height="30" as="geometry" />
        </mxCell>
        <mxCell id="tg3P0OwAwfH6cwJ7fF7Y-66" value="Image Patching" style="text;html=1;align=center;verticalAlign=middle;resizable=0;points=[];autosize=1;strokeColor=none;fillColor=none;" parent="1" vertex="1">
          <mxGeometry x="441" y="465.5" width="110" height="30" as="geometry" />
        </mxCell>
      </root>
    </mxGraphModel>
  </diagram>
</mxfile>
